<svg width="24" height="24" viewBox="0 0 24 24" fill="none" xmlns="http://www.w3.org/2000/svg">
<path d="M21.1989 17.947H19.0211C18.1961 17.947 17.9421 17.2927 16.458 15.7889C15.1689 14.5392 14.598 14.3733 14.2802 14.3733C13.8311 14.3733 13.7036 14.4999 13.7036 15.1158V17.0836C13.7036 17.6114 13.5377 17.9283 12.1408 17.9283C9.8308 17.9283 7.26768 16.5314 5.47049 13.9289C2.76018 10.1152 2.01862 7.2586 2.01862 6.66798C2.01862 6.35017 2.14518 6.05298 2.75549 6.05298H4.93799C5.49018 6.05298 5.70018 6.30704 5.91487 6.89767C6.99393 10.013 8.79112 12.742 9.53268 12.742C9.80643 12.742 9.93299 12.6155 9.93299 11.917V8.69954C9.84955 7.21548 9.06862 7.08798 9.06862 6.5611C9.06862 6.30704 9.27862 6.05298 9.61518 6.05298H13.0474C13.5114 6.05298 13.6821 6.30704 13.6821 6.8536V11.1942C13.6821 11.663 13.8921 11.8289 14.0186 11.8289C14.2924 11.8289 14.5267 11.663 15.0339 11.1549C16.6014 9.39704 17.7246 6.68673 17.7246 6.68673C17.8708 6.36892 18.1249 6.07173 18.6771 6.07173H20.8596C21.5139 6.07173 21.6602 6.40829 21.5139 6.87704C21.2402 8.14642 18.5692 11.9161 18.5692 11.9161C18.3396 12.2967 18.2514 12.4627 18.5692 12.8874C18.8036 13.2052 19.5658 13.8642 20.073 14.4549C21.0058 15.5142 21.723 16.403 21.9142 17.018C22.1289 17.6283 21.8121 17.9461 21.1961 17.9461L21.1989 17.947Z" fill="white"/>
</svg>
